<?xml version="1.0" encoding="utf-8"?>
<!-- Generator: Adobe Illustrator 21.0.0, SVG Export Plug-In . SVG Version: 6.00 Build 0)  -->
<svg version="1.1"
	 id="svg2" xmlns:cc="http://creativecommons.org/ns#" xmlns:dc="http://purl.org/dc/elements/1.1/" xmlns:osb="http://www.openswatchbook.org/uri/2009/osb" xmlns:rdf="http://www.w3.org/1999/02/22-rdf-syntax-ns#" xmlns:svg="http://www.w3.org/2000/svg"
	 xmlns="http://www.w3.org/2000/svg" xmlns:xlink="http://www.w3.org/1999/xlink" x="0px" y="0px" viewBox="0 0 452.3 156.7"
	 style="enable-background:new 0 0 452.3 156.7;" xml:space="preserve">
<style type="text/css">
	.st0{fill:url(#path3837_1_);}
	.st1{fill:none;stroke:#FFFFFF;stroke-width:13;}
	.st2{fill:#FFFFFF;}
	.st3{fill:#FFFFFF;stroke:#FFFFFF;stroke-width:2.3603;stroke-linecap:round;stroke-linejoin:round;}
	.st4{fill:none;stroke:#FFFFFF;stroke-width:3.7264;}
	.st5{fill:none;stroke:#FFFFFF;stroke-width:4.0254;}
	.st6{fill:none;stroke:#FFFFFF;stroke-width:4.063;}
	.st7{enable-background:new    ;}
	.st8{fill:#4D4D4D;}
	.st9{fill:#FF5000;}
</style>
<g>
	
		<linearGradient id="path3837_1_" gradientUnits="userSpaceOnUse" x1="-737.8835" y1="1639.9272" x2="-817.2668" y2="1735.7957" gradientTransform="matrix(1.0651 -0.9041 0.8901 1.0732 -593.9965 -2438.5088)">
		<stop  offset="0" style="stop-color:#FFA900"/>
		<stop  offset="1" style="stop-color:#FD0000"/>
	</linearGradient>
	<path id="path3837" class="st0" d="M140.9,25.4c23.8,28.7,16,75.1-17.5,103.6s-80,28.2-103.9-0.5l0,0C-4.4,99.7,3.5,53.3,37,24.9
		S117-3.3,140.9,25.4L140.9,25.4z"/>
	<path id="path5413" class="st1" d="M82.1,75.6C60.7,56.3,48.5,84,59.9,101.1c12.5,18.8,39.4,18.4,55.2,4.3c20-17.8,19.5-49.7,2-69"
		/>
	<path id="path3819" class="st2" d="M95,91.3c-4.8,4.7-16.1,2.6-25.3-4.5l0,0C60.5,79.6,57,70,61.8,65.4l0,0
		c4.8-4.7,16.1-2.6,25.3,4.5l0,0C96.3,77,99.9,86.6,95,91.3L95,91.3z"/>
	<path id="path3853" class="st3" d="M101.1,28.5l9.3,15.7L124.7,30l-18.1-7.6L101.1,28.5z"/>
	<g id="g3804" transform="matrix(0.95039189,0,0,0.93299787,-2.487134,-0.56516029)">
		<path id="path3855-7" class="st4" d="M105.7,23l-1.6-9.7l0.1,0.3l0,0"/>
		<path id="path3855-7-0" class="st5" d="M95.6,22.1l10.7,0.5H106l0,0"/>
		<path id="path3855-7-05" class="st6" d="M111.9,27.7l-6.8-5.4l0.3,0.2l0,0"/>
	</g>
	<path id="path3942" class="st1" d="M51.8,131.2c2.4,2.1,10.5,5.5,13.3,9c2.9,3.6,2.4,7.8,2.4,10.2"/>
	<path id="path2987-5" class="st1" d="M76.7,83.7c26.2,14.4,31.4-16,15.8-30.4c-17.2-15.9-44-9.3-56.3,8.4
		c-15.8,22.6-7.1,54.6,15.6,69.6c0.8,0.6,1.7,1.1,2.6,1.6"/>
</g>
<g class="st7">
	<path class="st8" d="M190.2,89.1h-21.7l-5.7,18.2h-7.7l20.2-59.7h8.6l20.2,59.7h-8.1L190.2,89.1z M188.2,83l-2.8-9.1
		c-1.1-3.3-2.1-6.7-3.1-10c-1-3.3-1.9-6.7-2.9-10.1h-0.4c-0.9,3.5-1.9,6.8-2.8,10.1c-1,3.3-2,6.6-3.1,10l-2.8,9.1H188.2z"/>
	<path class="st8" d="M225.3,108.4c-3.2,0-6.2-0.6-9-1.7c-2.9-1.2-5.3-2.6-7.5-4.4l3.7-5c1.9,1.6,3.9,2.9,6,3.8c2,1,4.4,1.5,7.1,1.5
		c2.9,0,5.1-0.7,6.6-2c1.5-1.3,2.2-3,2.2-4.9c0-1.2-0.3-2.2-0.9-3c-0.6-0.8-1.4-1.6-2.3-2.2c-0.9-0.6-2-1.2-3.2-1.7
		c-1.2-0.5-2.4-1-3.6-1.5c-1.6-0.5-3.2-1.2-4.7-1.9c-1.6-0.7-3-1.5-4.2-2.5c-1.2-1-2.3-2.2-3-3.5c-0.8-1.3-1.2-2.9-1.2-4.8
		c0-1.8,0.3-3.4,1-5c0.7-1.5,1.7-2.9,3-4c1.3-1.1,2.9-2,4.8-2.6c1.9-0.6,4-1,6.4-1c2.8,0,5.4,0.5,7.7,1.5c2.3,1,4.4,2.2,6.1,3.5
		l-3.5,4.7c-1.5-1.2-3.1-2.1-4.7-2.8c-1.6-0.7-3.4-1.1-5.4-1.1c-2.8,0-4.8,0.6-6.1,1.9c-1.3,1.3-2,2.8-2,4.5c0,1,0.3,1.9,0.8,2.7
		c0.5,0.8,1.3,1.4,2.2,2c0.9,0.6,2,1.1,3.1,1.5s2.4,0.9,3.7,1.4c1.6,0.6,3.2,1.2,4.8,1.9c1.6,0.7,3,1.5,4.3,2.5
		c1.3,1,2.3,2.2,3.1,3.7s1.2,3.2,1.2,5.3c0,1.8-0.3,3.5-1,5.1c-0.7,1.6-1.7,3-3.1,4.2c-1.4,1.2-3.1,2.2-5.1,2.9
		C230.2,108,227.9,108.4,225.3,108.4z"/>
	<path class="st8" d="M264,108.4c-2.4,0-4.4-0.4-6-1.1c-1.6-0.7-2.9-1.7-3.9-3s-1.7-2.8-2.1-4.6c-0.4-1.8-0.6-3.8-0.6-6V69.1h-6.6
		v-5.6l6.9-0.5l0.9-12.4h6.3V63h11.9v6.1h-11.9v24.6c0,2.7,0.5,4.8,1.5,6.3c1,1.5,2.8,2.2,5.3,2.2c0.8,0,1.6-0.1,2.5-0.4
		c0.9-0.2,1.7-0.5,2.5-0.8l1.5,5.6c-1.2,0.4-2.5,0.8-4,1.1C266.8,108.2,265.4,108.4,264,108.4z"/>
	<path class="st8" d="M280.8,63h6.2l0.6,8h0.3c1.5-2.8,3.4-5,5.5-6.6c2.2-1.6,4.5-2.5,7.1-2.5c1.8,0,3.3,0.3,4.7,0.9l-1.5,6.6
		c-0.7-0.2-1.4-0.4-2-0.5c-0.6-0.1-1.4-0.2-2.3-0.2c-1.9,0-3.8,0.8-5.9,2.3c-2,1.5-3.8,4.2-5.3,7.9v28.4h-7.5V63z"/>
	<path class="st8" d="M328.7,108.4c-2.7,0-5.3-0.5-7.8-1.5s-4.6-2.5-6.5-4.5c-1.9-2-3.4-4.4-4.5-7.3c-1.1-2.9-1.7-6.1-1.7-9.8
		c0-3.7,0.6-7,1.7-9.9c1.1-2.9,2.6-5.3,4.5-7.3c1.9-2,4-3.5,6.5-4.6c2.5-1,5.1-1.5,7.8-1.5c2.7,0,5.3,0.5,7.8,1.5
		c2.5,1,4.6,2.5,6.5,4.6c1.9,2,3.4,4.4,4.5,7.3c1.1,2.9,1.7,6.2,1.7,9.9c0,3.6-0.6,6.9-1.7,9.8c-1.1,2.9-2.6,5.3-4.5,7.3
		c-1.9,2-4,3.5-6.5,4.5S331.4,108.4,328.7,108.4z M328.7,102.2c1.9,0,3.6-0.4,5.2-1.2c1.6-0.8,2.9-2,4-3.5c1.1-1.5,2-3.3,2.6-5.3
		c0.6-2.1,0.9-4.4,0.9-6.9c0-2.5-0.3-4.9-0.9-7c-0.6-2.1-1.5-3.9-2.6-5.4c-1.1-1.5-2.5-2.7-4-3.5c-1.6-0.8-3.3-1.2-5.2-1.2
		c-1.9,0-3.6,0.4-5.2,1.2c-1.6,0.8-2.9,2-4,3.5c-1.1,1.5-2,3.3-2.6,5.4c-0.6,2.1-0.9,4.4-0.9,7c0,2.5,0.3,4.9,0.9,6.9
		c0.6,2.1,1.5,3.8,2.6,5.3c1.1,1.5,2.5,2.6,4,3.5C325,101.8,326.8,102.2,328.7,102.2z"/>
</g>
<g class="st7">
	<path class="st9" d="M362.3,63.6h3.5l0.4,5.5h0.3c2.1-1.7,4.4-3.2,7-4.5c2.5-1.3,5.1-2,7.9-2c5.8,0,10.2,2,13.1,6.1
		c2.9,4,4.4,9.5,4.4,16.2c0,3.7-0.5,7-1.5,9.9c-1,2.9-2.4,5.4-4.2,7.4c-1.8,2-3.9,3.6-6.2,4.6c-2.3,1.1-4.8,1.6-7.3,1.6
		c-2.1,0-4.2-0.5-6.4-1.4c-2.2-0.9-4.4-2.3-6.7-4v24h-4V63.6z M366.3,99.2c2.5,2.1,4.9,3.5,7.1,4.4c2.2,0.9,4.1,1.3,5.8,1.3
		c2.2,0,4.2-0.5,6.1-1.5c1.9-1,3.5-2.3,4.8-4.1c1.3-1.8,2.4-3.9,3.1-6.3c0.8-2.5,1.1-5.2,1.1-8.1c0-2.7-0.3-5.2-0.8-7.5
		c-0.5-2.3-1.3-4.3-2.4-6c-1.1-1.7-2.5-3-4.3-3.9c-1.8-0.9-3.9-1.4-6.4-1.4c-2.2,0-4.4,0.6-6.8,1.9c-2.3,1.2-4.8,3-7.5,5.3V99.2z"/>
	<path class="st9" d="M410.1,127.2c-1.6,0-3.1-0.3-4.5-0.9l0.9-3.5c0.5,0.2,1,0.3,1.6,0.5c0.6,0.2,1.2,0.2,1.9,0.2
		c2.7,0,5-1.1,6.8-3.3c1.8-2.2,3.3-4.9,4.4-8.3l1.2-3.8l-17.9-44.5h4.4l10.6,27.5c0.7,1.8,1.4,3.8,2.2,6c0.8,2.2,1.7,4.2,2.5,6.2
		h0.4c0.7-1.9,1.3-4,2-6.2c0.7-2.2,1.3-4.2,2-6l9.4-27.5h4.1l-17.3,49.1c-0.6,1.8-1.4,3.6-2.2,5.4c-0.9,1.8-1.9,3.3-3.1,4.6
		c-1.2,1.3-2.5,2.4-4.1,3.2C413.8,126.8,412.1,127.2,410.1,127.2z"/>
</g>
<g class="st7">
	<path class="st8" d="M160.9,21.9h-5.5v-1h12.1v1h-5.5V38h-1.2V21.9z"/>
	<path class="st8" d="M170.7,19.3h1.1v8.2c0.7-0.7,1.3-1.2,2-1.6c0.7-0.4,1.4-0.6,2.3-0.6c1.3,0,2.3,0.4,2.9,1.2
		c0.6,0.8,0.9,2,0.9,3.6v8h-1.1v-7.9c0-1.3-0.2-2.3-0.7-3s-1.2-0.9-2.2-0.9c-0.7,0-1.4,0.2-2,0.6c-0.6,0.4-1.3,1-2.1,1.8V38h-1.1
		V19.3z"/>
	<path class="st8" d="M189.1,38.3c-0.8,0-1.5-0.1-2.2-0.4c-0.7-0.3-1.3-0.7-1.8-1.3s-0.9-1.2-1.2-2.1c-0.3-0.8-0.5-1.7-0.5-2.7
		s0.2-1.9,0.5-2.8c0.3-0.8,0.7-1.5,1.2-2.1c0.5-0.6,1.1-1,1.7-1.3c0.6-0.3,1.3-0.5,2-0.5c1.5,0,2.7,0.5,3.5,1.5
		c0.8,1,1.3,2.4,1.3,4.3c0,0.2,0,0.3,0,0.5c0,0.2,0,0.3-0.1,0.5h-9c0,0.8,0.1,1.5,0.4,2.2c0.2,0.7,0.5,1.2,0.9,1.7
		c0.4,0.5,0.9,0.8,1.5,1.1c0.6,0.3,1.2,0.4,1.9,0.4c0.7,0,1.3-0.1,1.8-0.3s1.1-0.5,1.5-0.8l0.5,0.9c-0.5,0.3-1.1,0.6-1.7,0.8
		S190.1,38.3,189.1,38.3z M192.5,30.9c0-1.6-0.3-2.8-1-3.6c-0.7-0.8-1.6-1.2-2.7-1.2c-0.5,0-1,0.1-1.5,0.3s-0.9,0.5-1.3,0.9
		c-0.4,0.4-0.7,0.9-1,1.5c-0.3,0.6-0.4,1.3-0.5,2H192.5z"/>
</g>
<g>
	<g class="st7">
		<path class="st9" d="M241.7,117.8h5.7c1.3,0,2.4,0.1,3.4,0.3c1,0.2,1.9,0.6,2.6,1.1c0.7,0.5,1.2,1.2,1.6,2s0.6,1.8,0.6,3
			c0,2.3-0.7,4-2.1,5.1c-1.4,1.1-3.4,1.7-5.9,1.7h-4.2v9.9h-1.6V117.8z M247.1,129.5c2.3,0,4-0.4,5.1-1.3s1.7-2.2,1.7-4.1
			c0-1.9-0.6-3.3-1.7-4c-1.2-0.7-2.9-1.1-5.2-1.1h-3.7v10.4H247.1z"/>
		<path class="st9" d="M260.3,124h1.3l0.1,3.1h0.1c0.5-1.1,1.2-1.9,2-2.6s1.7-1,2.7-1c0.3,0,0.6,0,0.9,0.1s0.5,0.1,0.8,0.3l-0.3,1.4
			c-0.3-0.1-0.5-0.2-0.7-0.2c-0.2,0-0.5-0.1-0.8-0.1c-0.7,0-1.5,0.3-2.3,1c-0.8,0.6-1.5,1.8-2.2,3.3v11.4h-1.5V124z"/>
		<path class="st9" d="M276.8,141.2c-1,0-1.9-0.2-2.8-0.6c-0.9-0.4-1.7-1-2.3-1.7c-0.7-0.7-1.2-1.7-1.6-2.7
			c-0.4-1.1-0.6-2.3-0.6-3.7c0-1.4,0.2-2.7,0.6-3.8c0.4-1.1,0.9-2,1.6-2.8c0.7-0.7,1.5-1.3,2.3-1.7c0.9-0.4,1.8-0.6,2.8-0.6
			s1.9,0.2,2.8,0.6c0.9,0.4,1.7,1,2.4,1.7c0.7,0.7,1.2,1.7,1.6,2.8c0.4,1.1,0.6,2.4,0.6,3.8c0,1.4-0.2,2.6-0.6,3.7
			c-0.4,1.1-0.9,2-1.6,2.7c-0.7,0.7-1.5,1.3-2.4,1.7C278.7,141,277.7,141.2,276.8,141.2z M276.8,139.9c0.8,0,1.6-0.2,2.3-0.5
			c0.7-0.4,1.3-0.9,1.8-1.5s0.9-1.4,1.2-2.3c0.3-0.9,0.4-1.9,0.4-3c0-1.1-0.1-2.1-0.4-3c-0.3-0.9-0.7-1.7-1.2-2.4s-1.1-1.2-1.8-1.5
			c-0.7-0.4-1.5-0.5-2.3-0.5s-1.6,0.2-2.3,0.5c-0.7,0.4-1.3,0.9-1.8,1.5s-0.9,1.5-1.2,2.4c-0.3,0.9-0.4,1.9-0.4,3
			c0,1.1,0.1,2.1,0.4,3c0.3,0.9,0.7,1.7,1.2,2.3s1.1,1.2,1.8,1.5C275.2,139.7,275.9,139.9,276.8,139.9z"/>
		<path class="st9" d="M286.9,148.8c-0.4,0-0.8,0-1.2-0.1c-0.4-0.1-0.7-0.2-1-0.3l0.4-1.3c0.2,0.1,0.5,0.1,0.8,0.2
			c0.3,0.1,0.6,0.1,0.9,0.1c0.9,0,1.5-0.3,1.8-1s0.4-1.6,0.4-2.6V124h1.5v19.9c0,1.7-0.3,2.9-0.9,3.7
			C289.1,148.4,288.2,148.8,286.9,148.8z M289.9,120c-0.4,0-0.7-0.1-1-0.4c-0.3-0.3-0.4-0.6-0.4-1c0-0.4,0.1-0.8,0.4-1
			c0.3-0.2,0.6-0.4,1-0.4c0.4,0,0.7,0.1,1,0.4c0.3,0.2,0.4,0.6,0.4,1c0,0.4-0.1,0.7-0.4,1C290.6,119.8,290.2,120,289.9,120z"/>
		<path class="st9" d="M303.1,141.2c-1,0-2-0.2-3-0.6s-1.7-1-2.4-1.7s-1.2-1.7-1.6-2.8c-0.4-1.1-0.6-2.3-0.6-3.7
			c0-1.4,0.2-2.6,0.6-3.7c0.4-1.1,0.9-2,1.6-2.8c0.7-0.8,1.4-1.3,2.3-1.8s1.7-0.6,2.7-0.6c2,0,3.5,0.7,4.6,2
			c1.1,1.4,1.7,3.3,1.7,5.7c0,0.2,0,0.4,0,0.6c0,0.2,0,0.4-0.1,0.6h-11.8c0,1.1,0.2,2,0.5,2.9c0.3,0.9,0.7,1.7,1.2,2.3
			c0.5,0.6,1.2,1.1,1.9,1.5c0.8,0.4,1.6,0.5,2.5,0.5c0.9,0,1.7-0.1,2.4-0.4c0.7-0.3,1.4-0.6,2-1.1l0.6,1.2c-0.7,0.4-1.4,0.8-2.2,1.1
			C305.3,141.1,304.3,141.2,303.1,141.2z M307.5,131.4c0-2.2-0.4-3.8-1.3-4.8c-0.9-1.1-2-1.6-3.5-1.6c-0.7,0-1.4,0.1-2,0.4
			c-0.6,0.3-1.2,0.7-1.7,1.3c-0.5,0.6-0.9,1.2-1.3,2c-0.3,0.8-0.5,1.7-0.6,2.7H307.5z"/>
		<path class="st9" d="M319.5,141.2c-1.1,0-2.1-0.2-3-0.6c-0.9-0.4-1.7-1-2.4-1.7c-0.7-0.7-1.2-1.7-1.6-2.7s-0.6-2.3-0.6-3.7
			c0-1.4,0.2-2.7,0.6-3.8c0.4-1.1,1-2,1.6-2.8c0.7-0.7,1.5-1.3,2.4-1.7c0.9-0.4,1.9-0.6,2.9-0.6c1.1,0,2.1,0.2,2.8,0.6
			s1.4,0.9,2,1.4l-0.9,1.1c-0.5-0.5-1.1-0.9-1.7-1.3c-0.6-0.3-1.4-0.5-2.2-0.5c-0.8,0-1.6,0.2-2.3,0.5c-0.7,0.4-1.3,0.9-1.9,1.5
			c-0.5,0.7-1,1.5-1.3,2.4c-0.3,0.9-0.5,1.9-0.5,3c0,1.1,0.1,2.1,0.4,3c0.3,0.9,0.7,1.7,1.2,2.3c0.5,0.7,1.1,1.2,1.9,1.5
			c0.7,0.4,1.6,0.5,2.4,0.5c0.9,0,1.7-0.2,2.4-0.6s1.4-0.8,2-1.4l0.8,1.1c-0.7,0.6-1.5,1.2-2.4,1.6S320.6,141.2,319.5,141.2z"/>
		<path class="st9" d="M332.9,141.2c-0.8,0-1.5-0.1-2-0.4c-0.5-0.2-0.9-0.6-1.3-1s-0.5-1-0.7-1.6c-0.1-0.6-0.2-1.3-0.2-2.1v-10.8
			h-2.6v-1.2l2.6-0.1l0.2-4.9h1.3v4.9h4.8v1.3h-4.8v11c0,0.5,0,1,0.1,1.5c0.1,0.4,0.2,0.8,0.4,1.1c0.2,0.3,0.5,0.6,0.8,0.7
			c0.4,0.2,0.8,0.3,1.4,0.3c0.3,0,0.7-0.1,1-0.2s0.7-0.2,1-0.4l0.4,1.3c-0.5,0.2-1,0.3-1.4,0.5C333.7,141.2,333.3,141.2,332.9,141.2
			z"/>
	</g>
</g>
</svg>
